<svg width="413" height="122" viewBox="0 0 413 122" fill="none" xmlns="http://www.w3.org/2000/svg">
<path d="M8.64258 87.4844C7.50326 86.8333 6.51042 86.1497 5.66406 85.4336C4.85026 84.7174 4.44336 83.9525 4.44336 83.1387C4.44336 81.5762 5.11068 80.7949 6.44531 80.7949C7.32422 80.7949 8.30078 81.2832 9.375 82.2598C10.4492 83.2363 11.6536 84.099 12.9883 84.8477C14.3229 85.5638 15.7715 86.1823 17.334 86.7031C20.5566 87.7773 23.5352 88.3145 26.2695 88.3145C29.0039 88.3145 31.1035 88.1354 32.5684 87.7773C34.0658 87.4193 35.319 86.931 36.3281 86.3125C38.4766 84.9779 39.5508 83.2689 39.5508 81.1855C39.5508 79.265 38.623 77.3281 36.7676 75.375C35.2051 73.7148 32.9915 71.7292 30.127 69.418L21.7773 62.875C13.4115 56.4297 8.47982 50.5378 6.98242 45.1992C6.46159 43.3438 6.20117 41.2767 6.20117 38.998C6.20117 36.7194 6.70573 34.4733 7.71484 32.2598C8.75651 30.0462 10.2865 28.1094 12.3047 26.4492C16.6341 22.8359 22.526 21.0293 29.9805 21.0293C33.7891 21.0293 37.207 21.599 40.2344 22.7383C43.2617 23.8451 45.3288 24.8379 46.4355 25.7168C47.5423 26.5957 48.0957 27.3932 48.0957 28.1094C48.0957 29.6068 47.4772 30.3555 46.2402 30.3555C45.5241 30.3555 44.7591 29.9974 43.9453 29.2812C43.1315 28.5651 42.2201 27.9466 41.2109 27.4258C40.2344 26.8724 39.1113 26.3841 37.8418 25.9609C35.1074 25.0495 32.4219 24.5938 29.7852 24.5938C24.9349 24.5938 22.5098 26.1888 22.5098 29.3789C22.5098 30.7135 22.9492 31.9505 23.8281 33.0898C25.3906 35.0755 28.4342 37.9238 32.959 41.6348C37.5163 45.3132 41.1621 48.5358 43.8965 51.3027C46.6634 54.0697 48.763 56.5599 50.1953 58.7734C52.474 62.2565 53.6133 65.8861 53.6133 69.6621C53.6133 73.4056 52.946 76.5957 51.6113 79.2324C50.3092 81.8366 48.4701 84.0827 46.0938 85.9707C41.0807 89.9421 34.8633 91.9277 27.4414 91.9277C20.0195 91.9277 13.7533 90.4466 8.64258 87.4844ZM127.637 23.959L127.344 30.0137V59.2129C127.344 68.8483 124.577 76.6771 119.043 82.6992C113.379 88.8516 105.859 91.9277 96.4844 91.9277C86.4583 91.9277 78.6458 88.7865 73.0469 82.5039C67.8385 76.7422 65.2344 69.3529 65.2344 60.3359V21.9082H90.1855V87.7773C92.6921 88.1354 95.4427 88.3145 98.4375 88.3145C101.465 88.3145 104.525 87.7122 107.617 86.5078C110.742 85.3034 113.477 83.4154 115.82 80.8438C120.898 75.3099 123.47 67.2207 123.535 56.5762V30.1113C123.535 29.1348 123.454 27.9792 123.291 26.6445C123.161 25.3099 123.096 24.3984 123.096 23.9102C123.096 22.2174 123.893 21.3711 125.488 21.3711C126.921 21.3711 127.637 22.2337 127.637 23.959ZM175.732 70.7363L180.078 70.9316C186.393 70.9316 191.602 68.8483 195.703 64.6816C199.87 60.4824 202.051 55.0462 202.246 48.373C202.604 38.0866 197.656 31.1367 187.402 27.5234C183.561 26.1562 178.564 25.4727 172.412 25.4727H168.311V91H143.408V21.9082H162.109C172.201 21.9082 178.288 22.0547 180.371 22.3477C182.454 22.6406 184.619 23.015 186.865 23.4707C189.144 23.9264 191.585 24.9193 194.189 26.4492C196.826 27.9792 199.056 29.8021 200.879 31.918C204.557 36.2148 206.331 41.2604 206.201 47.0547C206.006 54.444 203.841 60.5964 199.707 65.5117C195.508 70.4596 189.714 73.5195 182.324 74.6914C180.176 74.9844 178.483 75.1309 177.246 75.1309C174.316 75.1309 172.852 74.3333 172.852 72.7383C172.852 72.1523 173.112 71.6803 173.633 71.3223C174.154 70.9316 174.854 70.7363 175.732 70.7363ZM250.439 67.3184L254.443 67.6113C260.173 67.6113 265.039 65.6094 269.043 61.6055C273.047 57.6016 275.049 52.6211 275.049 46.6641C275.049 38.8516 271.615 33.0573 264.746 29.2812C260.97 27.1979 256.934 25.9935 252.637 25.668C250.814 25.5052 249.121 25.4238 247.559 25.4238H244.238C243.555 25.4238 242.952 25.4401 242.432 25.4727V91H217.529V21.9082C225.146 21.9082 231.315 21.9082 236.035 21.9082C240.755 21.9082 243.831 21.9245 245.264 21.957C246.696 21.9896 247.965 22.0384 249.072 22.1035C250.212 22.1361 251.27 22.1849 252.246 22.25C253.678 22.3802 255.697 22.6895 258.301 23.1777C260.938 23.666 263.542 24.5938 266.113 25.9609C268.685 27.3281 270.898 29.0208 272.754 31.0391C276.758 35.3359 278.76 40.4466 278.76 46.3711C278.76 52.2305 276.904 57.4062 273.193 61.8984C269.385 66.4883 264.307 69.4505 257.959 70.7852C260.986 80.1602 264.844 85.7591 269.531 87.582C270.964 88.1354 272.396 88.4121 273.828 88.4121L277.686 87.4844C278.89 87.4844 279.492 88.1029 279.492 89.3398C279.492 91.0651 277.474 91.9277 273.438 91.9277C270.508 91.9277 267.822 91.1139 265.381 89.4863C261.572 87.2077 258.333 82.7806 255.664 76.2051L254.248 72.7383C254.02 72.1849 253.809 71.8431 253.613 71.7129C253.451 71.5827 253.141 71.5176 252.686 71.5176C252.262 71.5176 251.888 71.5501 251.562 71.6152L250.391 71.6641C249.089 71.6641 248.193 71.4199 247.705 70.9316C247.249 70.4434 247.021 69.9388 247.021 69.418C247.021 68.0182 248.161 67.3184 250.439 67.3184ZM303.076 82.3086C297.119 82.3086 293.05 82.2598 290.869 82.1621L289.453 85.5312C289.03 86.4753 288.639 87.4681 288.281 88.5098C287.533 90.528 286.491 91.5371 285.156 91.5371C284.538 91.5371 284.033 91.3418 283.643 90.9512C283.252 90.5605 283.057 90.1536 283.057 89.7305C283.057 89.0143 283.366 88.2168 283.984 87.3379C284.961 85.9707 285.921 84.1803 286.865 81.9668C284.066 81.7064 282.666 80.8926 282.666 79.5254C282.666 78.1582 283.464 77.4746 285.059 77.4746C286.035 77.4746 287.174 77.6374 288.477 77.9629L312.842 18.7832L346.24 91H320.801L316.748 82.3086H303.076ZM292.432 78.3535C295.557 78.6139 298.356 78.7441 300.83 78.7441H315.137L302.93 52.4258L292.432 78.3535ZM380.078 69.4668C375.846 69.4668 372.038 68.7669 368.652 67.3672C365.267 65.9349 362.37 64.0143 359.961 61.6055C355.046 56.5924 352.588 50.2773 352.588 42.6602C352.588 35.0104 355.111 28.6302 360.156 23.5195C365.43 18.181 372.152 15.5117 380.322 15.5117C388.558 15.5117 395.28 18.1484 400.488 23.4219C405.404 28.4023 407.861 34.7012 407.861 42.3184C407.861 49.9681 405.339 56.3646 400.293 61.5078C395.02 66.8138 388.281 69.4668 380.078 69.4668ZM379.98 65.8535C383.268 65.8535 386.344 65.3327 389.209 64.291C392.074 63.2493 394.596 61.7357 396.777 59.75C401.53 55.3555 403.906 49.5938 403.906 42.4648C403.906 35.4987 401.693 29.8509 397.266 25.5215C392.839 21.2246 387.142 19.0762 380.176 19.0762L380.225 19.125C373.649 19.125 368.132 21.1758 363.672 25.2773C358.919 29.6393 356.543 35.3848 356.543 42.5137C356.543 49.4473 358.757 55.0951 363.184 59.457C367.513 63.7214 373.112 65.8535 379.98 65.8535ZM391.113 50.082C392.253 50.082 392.822 50.6029 392.822 51.6445C392.822 52.7513 392.122 53.7767 390.723 54.7207C388.184 56.4134 385.433 57.2598 382.471 57.2598C379.541 57.2598 377.1 56.9017 375.146 56.1855C373.193 55.4368 371.484 54.3952 370.02 53.0605C366.862 50.196 365.283 46.4525 365.283 41.8301C365.283 37.5007 366.895 33.9362 370.117 31.1367C373.34 28.3698 377.262 26.9863 381.885 26.9863C384.261 26.9863 386.279 27.3607 387.939 28.1094C390.706 29.3464 392.09 30.5508 392.09 31.7227C392.09 32.8945 391.553 33.4805 390.479 33.4805C389.795 33.4805 388.932 33.1224 387.891 32.4062C386.165 31.1693 384.066 30.5508 381.592 30.5508C380.908 30.5508 380.111 30.6322 379.199 30.7949V53.4512C380.436 53.6139 381.576 53.6953 382.617 53.6953C385.091 53.6953 387.207 52.8815 388.965 51.2539C389.746 50.4727 390.462 50.082 391.113 50.082Z" fill="white"/>
</svg>
